<?xml version="1.0" encoding="utf-8"?>
<!-- Generator: Adobe Illustrator 25.3.1, SVG Export Plug-In . SVG Version: 6.00 Build 0)  -->
<svg version="1.1" id="Layer_1" xmlns="http://www.w3.org/2000/svg" xmlns:xlink="http://www.w3.org/1999/xlink" x="0px" y="0px"
	 viewBox="0 0 826.1 154.5" style="enable-background:new 0 0 826.1 154.5;" xml:space="preserve">
<style type="text/css">
	.st0{fill:#EA501F;}
	.st1{fill:#FFFFFF;}
</style>
<g>
	<path class="st0" d="M185.8,109c-1.9-1.3-2.4-3.8-1.2-5.8c1.3-1.9,3.8-2.4,5.8-1.2c1.2,0.8,2.4,1.6,3.8,2.4
		c9.5,5.8,18.4,8.8,25.9,8.8c6.6,0,12.1-2.5,15.5-7.6l0,0c0.3-0.4,0.5-0.5,0.5-0.8c0.9-1.6,1.7-3.3,2.3-4.9c0.9-3.3,0.8-6.9-0.5-9.9
		c-1.5-3.3-4.2-6.5-8.8-9.2l0,0c-2.9-1.7-6.6-3.3-11-4.6c-11.3-3.2-19.5-7.7-24-13.7c-4.9-6.6-5.2-14.6,0-24.1
		c3.4-6.4,10.6-10.3,19.6-11c7.8-0.5,17.2,1.3,26.8,6.1c2.1,1.1,2.9,3.6,1.9,5.6c-1.1,2.1-3.6,2.9-5.6,1.9
		c-8.1-4.2-15.9-5.7-22.3-5.2c-6.1,0.5-10.9,2.9-12.9,6.8c-3.4,6.4-3.4,11.4-0.5,15.3c3.3,4.4,10.1,8,19.5,10.6
		c5.2,1.5,9.4,3.3,13,5.6l0,0c6,3.6,9.9,8.1,11.9,13c2.3,5,2.4,10.5,0.9,15.5c-0.7,2.4-1.7,4.8-3.2,7c-0.4,0.5-0.5,0.9-0.7,1.2l0,0
		c-5,7.4-12.9,11.1-22.4,11.1c-8.9,0-19.2-3.3-30.1-9.9C188.6,110.9,187.3,110.1,185.8,109z"/>
	<path class="st0" d="M260.1,31.2c0-2.3,1.9-4,4.2-4c2.4,0,4.2,1.7,4.2,4v86.3c0,2.3-1.9,4-4.2,4c-2.4,0-4.2-1.7-4.2-4V31.2z"/>
	<path class="st0" d="M268.7,85c-1.5,1.7-4.1,2.1-6,0.5c-1.7-1.5-2.1-4.1-0.5-6c6.4-7.8,13.7-12.6,20.7-14.6
		c5.2-1.5,10.1-1.6,14.5-0.5c4.5,1.3,8.5,3.8,11.3,7.8c2.7,3.7,4.2,8.5,4.2,14.2v30.9c0,2.4-1.9,4.2-4.2,4.2s-4.2-1.9-4.2-4.2V86.6
		c0-4-0.9-7-2.5-9.4c-1.6-2.3-3.8-3.7-6.6-4.5c-2.9-0.8-6.2-0.7-9.9,0.4C279.7,74.7,273.9,78.7,268.7,85z"/>
	<path class="st0" d="M353.9,63.8c8,0,15.3,3.3,20.4,8.5l0,0c5.2,5.2,8.5,12.5,8.5,20.4s-3.3,15.3-8.5,20.4
		c-5.2,5.2-12.5,8.5-20.4,8.5c-8,0-15.3-3.3-20.4-8.5l0,0c-5.2-5.2-8.5-12.5-8.5-20.4s3.3-15.3,8.5-20.4l0,0
		C338.6,67,345.9,63.8,353.9,63.8L353.9,63.8z M368.4,78.1c-3.7-3.7-9-6.1-14.6-6.1c-5.7,0-10.9,2.4-14.6,6.1l0,0
		c-3.7,3.7-6.1,9-6.1,14.6c0,5.7,2.4,10.9,6.1,14.6l0,0c3.7,3.7,9,6.1,14.6,6.1c5.6,0,10.9-2.4,14.6-6.1c3.7-3.7,6.1-9,6.1-14.6
		C374.5,87,372.2,81.9,368.4,78.1z"/>
	<path class="st0" d="M394.6,67.9c0-2.4,1.9-4.2,4.2-4.2s4.2,1.9,4.2,4.2v5.2c0.4-0.4,0.5-0.7,0.9-0.9l0,0
		c5.2-5.2,12.5-8.5,20.4-8.5c8,0,15.3,3.3,20.4,8.5l0,0c5.2,5.2,8.5,12.5,8.5,20.4s-3.3,15.3-8.5,20.4s-12.5,8.5-20.4,8.5
		c-8,0-15.3-3.1-20.6-8.4l0,0c-0.4-0.4-0.5-0.7-0.9-0.9v38.1c0,2.4-1.9,4.2-4.2,4.2s-4.2-1.9-4.2-4.2V67.9H394.6z M438.9,78.1
		c-3.7-3.7-9-6.1-14.6-6.1c-5.7,0-10.9,2.4-14.6,6.1l0,0c-3.7,3.7-6.1,9-6.1,14.6c0,5.7,2.4,10.9,6.1,14.6l0,0
		c3.7,3.7,9,6.1,14.6,6.1c5.7,0,10.9-2.4,14.6-6.1c3.7-3.7,6.1-9,6.1-14.6C445,87,442.6,81.9,438.9,78.1z"/>
	<path class="st0" d="M492.6,63.8c7,0,13.7,2.8,18.4,7.7c4,4,5.6,8,7,12.1c3.6,11.8-3.3,11.3-5.3,11.3h-38.5
		c0.4,2.8,1.1,5.3,1.9,7.7c1.5,3.6,3.7,6.2,6.5,8.1c2.9,1.9,6.6,2.8,10.9,2.8c4.6,0,10.1-1.3,16.2-3.8c2.1-0.9,4.5,0.1,5.4,2.3
		s-0.1,4.5-2.3,5.4c-7,2.9-13.5,4.2-19.4,4.4c-6,0.1-11.1-1.3-15.5-4.1c-4.4-2.8-8-6.6-9.8-11.9c-4-11.8-4.1-23.3,6-34.2
		C478.9,66.5,485.6,63.8,492.6,63.8L492.6,63.8z M505.2,77.3c-3.3-3.3-7.8-5.2-12.6-5.2s-9.2,2-12.6,5.2c-2.4,2.4-4.4,5.4-5.4,9
		h36.2C509.6,82.9,507.7,79.9,505.2,77.3z"/>
	<path class="st0" d="M556.1,63.8c7,0,13.7,2.8,18.4,7.7c4,4,5.6,8,7,12.1c3.6,11.8-3.3,11.3-5.3,11.3h-38.5
		c0.4,2.8,1.1,5.3,1.9,7.7c1.5,3.6,3.7,6.2,6.5,8.1c2.9,1.9,6.6,2.8,10.9,2.8c4.6,0,10.1-1.3,16.2-3.8c2.1-0.9,4.5,0.1,5.4,2.3
		s-0.1,4.5-2.3,5.4c-7,2.9-13.5,4.2-19.4,4.4c-6,0.1-11.1-1.3-15.5-4.1c-4.2-2.8-8-6.6-9.8-11.9c-4-11.8-4.1-23.3,6-34.2
		C542.4,66.5,549.1,63.8,556.1,63.8L556.1,63.8z M568.7,77.3c-3.3-3.3-7.8-5.2-12.6-5.2c-4.8,0-9.2,2-12.6,5.2
		c-2.4,2.4-4.4,5.4-5.4,9h36.2C573,82.9,571.1,79.9,568.7,77.3z"/>
</g>
<g>
	<path class="st0" d="M33.7,35.2h25.5c0.8-8.6,3.2-16.3,6.6-22.3c4.5-8,11-12.7,18.3-12.7s13.8,4.9,18.3,12.7
		c3.4,6,5.8,13.7,6.6,22.3h25.3c3.1,0,5.7,2.5,5.4,5.4l-5,71.1c-0.7,8.9-6.2,14.1-14.3,14.1H47.7c-9,0-13.8-6.4-14.3-14.1l-5.2-71.1
		C28.1,37.7,30.8,35.2,33.7,35.2L33.7,35.2z M65.5,35.2h37.1c-0.8-7.4-2.8-14.1-5.7-19.1c-3.3-6-8-9.5-12.9-9.5s-9.4,3.7-12.9,9.7
		C68.3,21.1,66.3,27.7,65.5,35.2z"/>
	<path class="st1" d="M65.7,100.8c-1.2-0.8-1.5-2.4-0.7-3.6c0.8-1.2,2.4-1.5,3.6-0.7c0.8,0.5,1.5,1.1,2.4,1.5
		c6,3.6,11.4,5.4,15.9,5.4c4.1,0,7.4-1.6,9.5-4.6l0,0c0.1-0.3,0.3-0.4,0.3-0.5c0.7-0.9,1.1-2,1.3-3.1c0.7-2.1,0.5-4.2-0.4-6.2
		c-0.9-2.1-2.7-4.1-5.4-5.7l0,0c-1.9-1.1-4.1-2.1-6.8-2.8c-6.9-2-12.1-4.8-14.9-8.5c-3.1-4.1-3.3-9,0-15c2.1-4,6.6-6.4,12.2-6.9
		c4.8-0.4,10.6,0.8,16.6,3.8c1.3,0.7,1.7,2.3,1.1,3.4c-0.7,1.3-2.3,1.7-3.4,1.1c-5-2.5-9.8-3.6-13.8-3.2c-3.8,0.3-6.8,1.7-8,4.1
		c-2.1,4-2.1,7-0.4,9.4c2,2.8,6.2,4.9,12.1,6.5c3.2,0.9,5.8,2.1,8.1,3.4l0,0c3.7,2.3,6.1,5,7.4,8.1c1.3,3.2,1.5,6.5,0.7,9.7
		c-0.4,1.5-1.1,2.9-2,4.4c-0.3,0.3-0.4,0.5-0.4,0.7l0,0c-3.2,4.6-8,6.9-13.8,6.9c-5.4,0-11.9-2-18.7-6.1
		C67.5,102,66.6,101.5,65.7,100.8z"/>
</g>
</svg>
