<?xml version="1.0" encoding="utf-8"?>
<!-- Generator: Adobe Illustrator 25.3.1, SVG Export Plug-In . SVG Version: 6.00 Build 0)  -->
<svg version="1.1" id="Layer_1" xmlns="http://www.w3.org/2000/svg" xmlns:xlink="http://www.w3.org/1999/xlink" x="0px" y="0px"
	 viewBox="0 0 826.1 128.6" style="enable-background:new 0 0 826.1 128.6;" xml:space="preserve">
<style type="text/css">
	.st0{fill-rule:evenodd;clip-rule:evenodd;fill:#0068FF;}
	.st1{fill:#0FA8E0;}
</style>
<path class="st0" d="M155.4,46.3v-4.7h14v65.9h-8c-3.3,0-6-2.7-6-6c0,0,0,0,0,0c-5.7,4.1-12.7,6.6-20.2,6.6
	c-18.9,0-34.3-15.3-34.3-34.2s15.3-34.2,34.3-34.2C142.7,39.7,149.7,42.1,155.4,46.3C155.4,46.3,155.4,46.3,155.4,46.3z M97.3,20.4
	v2.1c0,4-0.5,7.2-3.1,11.1l-0.3,0.4c-0.6,0.6-1.9,2.1-2.5,3L46.2,93.5h51.1v8c0,3.3-2.7,6-6,6H25.1v-3.8c0-4.6,1.1-6.7,2.6-8.8
	l48.1-59.5H27.1v-15C27.1,20.4,97.3,20.4,97.3,20.4z M186.5,107.5c-2.8,0-5-2.2-5-5V20.4h15v87.1
	C196.5,107.5,186.5,107.5,186.5,107.5z M240.9,39.3c19,0,34.5,15.4,34.5,34.5c0,19-15.4,34.5-34.5,34.5c-19.1,0-34.5-15.4-34.5-34.5
	C206.4,54.7,221.9,39.3,240.9,39.3z M135.2,94.1c11.1,0,20.2-9,20.2-20.1c0-11.1-9-20.1-20.2-20.1s-20.2,9-20.2,20.1
	C115,85,124,94.1,135.2,94.1z M240.9,94c11.2,0,20.3-9.1,20.3-20.3c0-11.2-9.1-20.3-20.3-20.3c-11.2,0-20.3,9.1-20.3,20.3
	C220.6,84.9,229.7,94,240.9,94z"/>
<g>
	<path class="st1" d="M119.9-103.7c-1.3-1.4-3-2-5.1-2c-3,0-5.2,1.5-6.6,4.4c-3-3.5-7-5.2-12.2-5.2c-6.2,0-11.4,2.4-15.6,7.1
		c-4.2,4.8-6.3,10.6-6.3,17.4c0,6.9,2.1,12.7,6.3,17.4c4.2,4.8,9.4,7.1,15.6,7.1c5.1,0,9.2-1.7,12.2-5.2c1.4,2.9,3.6,4.4,6.6,4.4
		c2.1,0,3.8-0.7,5.1-2c1.3-1.4,2-3,2-5v-33.3C121.9-100.6,121.2-102.3,119.9-103.7 M105.2-73.7c-1.7,2.2-4.1,3.3-7.1,3.3
		c-3,0-5.4-1.1-7.1-3.3c-1.7-2.2-2.6-5-2.6-8.3c0-3.3,0.9-6,2.6-8.3c1.7-2.2,4.1-3.3,7.1-3.3c3,0,5.4,1.1,7.1,3.3
		c1.7,2.2,2.6,5,2.6,8.3C107.7-78.7,106.9-76,105.2-73.7"/>
	<path class="st1" d="M137.9-60.3c-1.3,1.4-3,2-5.1,2c-2.1,0-3.8-0.7-5.1-2c-1.3-1.4-2-3-2-5v-59.6c0-2,0.7-3.6,2-5
		c1.3-1.4,3-2,5.1-2c2.1,0,3.8,0.7,5.1,2c1.3,1.4,2,3,2,5v59.6C139.9-63.4,139.3-61.7,137.9-60.3"/>
	<path class="st1" d="M184.9-99.4c-4.5-4.8-10.3-7.1-17.3-7.1c-7,0-12.8,2.4-17.2,7.1c-4.5,4.7-6.7,10.5-6.7,17.5
		c0,7,2.2,12.8,6.7,17.5c4.5,4.7,10.2,7.1,17.2,7.1c7,0,12.8-2.4,17.3-7.1c4.4-4.7,6.5-10.5,6.5-17.4
		C191.4-89,189.2-94.8,184.9-99.4 M174.7-73.7c-1.7,2.2-4.1,3.3-7.1,3.3c-3,0-5.4-1.1-7.1-3.3c-1.7-2.2-2.6-5-2.6-8.3
		c0-3.3,0.9-6,2.6-8.3c1.7-2.2,4.1-3.3,7.1-3.3c3,0,5.4,1.1,7.1,3.3c1.7,2.2,2.6,5,2.6,8.3C177.3-78.7,176.4-76,174.7-73.7"/>
	<path class="st1" d="M66.3-104.9c5-6.5,7.5-10.8,7.5-13c0-5.2-3.3-7.8-9.8-7.8H29.6c-2.7,0-4.8,0.6-6.3,1.9c-1.5,1.3-2.2,2.9-2.2,5
		c0,2,0.7,3.7,2.2,5c1.5,1.3,3.6,1.9,6.3,1.9h23.6L23-72.9c-2,2.6-3,4.8-3,6.8c0,5.7,3.8,8.5,11.3,8.5h35.5c5.7,0,8.5-2.4,8.5-7.1
		c0-4.8-2.8-7.1-8.5-7.1H40.7L66.3-104.9z"/>
</g>
<path d="M76.8,249.4c-8,2.5-14.6,9.6-16.5,17.8c-0.8,3.6-0.8,55.7,0,59.2c1.6,7.1,7,13.7,13.7,16.9c3.3,1.5,4.1,1.6,13.7,1.8
	l10.2,0.2l3.4,3.7c5.3,5.7,5.4,5.9,7,5.9c1.1,0,2.7-1.3,5.9-4.8l4.4-4.8h8.9c7.1,0,9.6-0.2,12.7-1.2c4.8-1.5,9.2-4.8,12.2-9.1
	c4.3-6.2,4.4-6.5,4.4-38.1s-0.1-31.9-4.4-38.1c-3-4.3-7.4-7.6-12.2-9.1c-3.6-1.1-5.5-1.2-32.4-1.1C86.1,248.6,78.7,248.8,76.8,249.4
	z M125.9,273c1.1,0.5,2.4,1.6,2.8,2.4c1.5,3.3,0.5,5-13.3,21l-13.2,15.4l12.4,0.3c12.1,0.3,12.4,0.4,13.6,1.8c1.6,2,1.5,4.4-0.4,6.4
	l-1.6,1.6h-17.8H90.5l-1.5-1.5c-2-1.9-2.1-5.4-0.1-8c0.7-1,6.7-8,13.1-15.6c6.5-7.5,11.9-13.9,11.9-14.1c0.1-0.2-5-0.4-11.4-0.4H91
	l-1.5-1.7c-0.8-0.9-1.5-2.3-1.5-3c0-1.8,1.6-4,3.3-4.7c0.7-0.3,8.3-0.5,16.9-0.5C120.5,272.1,124.3,272.3,125.9,273z"/>
</svg>
